<?xml version="1.0" encoding="utf-8" ?><svg xmlns="http://www.w3.org/2000/svg" xmlns:xlink="http://www.w3.org/1999/xlink" width="1024" height="1024" viewBox="0 0 1024 1024"><path fill="#FEFDFE" d="M165.001 157.734C178.923 157.174 196.48 157.7 210.77 157.681L312.167 157.785L608.124 157.687L785.423 157.654L839.212 157.663C847.998 157.681 857.038 157.552 865.819 158.044C869.27 158.237 871.548 160.124 871.583 163.757C871.708 176.602 871.642 189.466 871.637 202.318L871.606 281.506L871.639 690.438L871.622 806.634L871.701 843.894C871.67 852.472 871.861 861.794 870.64 870.217C867.271 871.582 865.748 871.859 862.305 872.364C856.339 873.041 846.899 872.695 840.753 872.667L804.857 872.608L683.007 872.603L274.462 872.608L204.467 872.633C191.827 872.638 179.05 872.755 166.417 872.474C164.471 872.431 161.116 872.089 159.356 871.272C158.224 870.696 158.197 870.336 157.993 869.174C156.771 862.198 157.292 854.412 157.307 847.336L157.343 815.067L157.262 688.846L157.391 168.792C157.442 161.538 157.281 158.596 165.001 157.734Z"/><path d="M166.449 167.418L862.282 167.505C862.961 215.824 862.281 265.936 862.261 314.366L862.136 605.94L862.122 779.848L862.338 830.625C862.42 840.899 862.81 852.684 862.261 862.776C853.907 863.162 843.541 862.899 835.006 862.898L784.708 862.89L632.208 862.862L166.247 862.754C166.549 837.296 166.282 811.253 166.292 785.729L166.332 632.902L166.449 167.418Z"/><path fill="#FEFDFE" d="M673.401 462.745C680.644 462.734 694.009 461.696 700.499 463.707C701.641 464.061 702.646 464.409 703.108 465.594C705.635 472.077 704.991 546.764 704.436 557.423C704.316 559.721 704.21 562.267 703.29 564.395C697.711 567.872 681.461 566.25 674.328 566.524C670.232 566.681 647.912 567.385 646.176 564.971C641.96 559.106 643.381 542.258 643.526 534.491C629.446 534.522 605.858 536.814 592.704 532.229C587.273 530.336 584.152 524.275 582.241 519.048C550.739 518.464 518.964 519.412 487.43 518.98C474.078 518.797 459.703 518.528 446.413 519.374C436.805 537.904 426.361 534.621 408.026 534.468L380.59 534.429C380.886 567.585 386.933 566.541 354.086 566.889C347.147 566.898 328.274 567.702 322.954 565.1C319.135 561.221 320.511 527.662 320.509 520.217L320.494 490.162C320.491 485.334 319.831 468.613 322.431 465.033C323.893 464.384 328.168 463.265 329.686 463.382C337.457 463.98 373.98 461.291 378.35 464.913C381.776 470.866 380.54 486.147 380.449 493.763C395.619 493.467 422.042 491.705 436.397 496.33C441.449 497.958 444.516 504.708 446.331 509.504L581.786 509.71C588.354 490.935 600.619 493.393 617.478 493.445L643.812 493.504C642.834 460.119 640.432 463.136 673.401 462.745Z"/><path d="M329.933 472.501L371.415 472.505L371.463 493.356C369.653 493.889 367.677 494.549 365.997 495.401C360.775 498.047 356.893 502.75 355.283 508.378C353.799 513.592 354.518 519.187 357.272 523.856C360.865 530.054 365.399 532.415 371.876 534.275L371.904 539.829C371.963 545.686 371.918 551.543 371.772 557.399L330.164 557.415C329.691 547.464 330.002 535.057 329.997 524.923L329.933 472.501Z"/><path d="M653.442 472.576L695.499 472.505L695.708 557.5L675.75 557.502L652.72 557.495L653.025 534.73C679.579 528.723 677.937 497.191 653.117 493.321C653.092 486.385 652.962 479.494 653.442 472.576Z"/><path d="M393.195 502.737C405.829 502.553 418.466 502.852 431.077 503.633C441.61 510.531 438.944 524.464 426.108 525.068C420.656 525.325 414.95 525.132 409.467 525.115C398.271 525.014 382.218 525.958 371.617 525.043C371.301 524.802 370.989 524.557 370.681 524.307C365.541 520.119 361.227 512.091 366.311 506.581C371.063 501.43 386.299 502.82 393.195 502.737Z"/><path d="M608.301 502.73C621.261 502.417 645.377 501.961 657.401 503.801C658.003 504.265 658.591 504.747 659.164 505.247C665.93 511.25 663.627 522.936 654.175 524.836C651.678 525.337 647.748 525.185 645.078 525.202C632.824 525.555 607.183 525.965 596.106 524.113C587.688 516.657 587.342 507.444 599.34 503.365C601.551 502.613 605.841 502.775 608.301 502.73Z"/><path fill="#FEFDFE" d="M643.519 369.555C643.376 362.884 642.952 356.025 643.329 349.368C643.449 347.257 643.664 343.839 645.412 342.388C647.303 340.821 650.573 340.318 652.94 340.048C658.64 339.399 664.512 339.92 670.242 339.886C678.729 339.834 687.516 338.925 695.935 340.044C697.844 340.298 702.638 340.978 703.618 342.67C706.044 346.86 705.047 425.383 704.586 433.739C704.47 435.834 704.274 437.884 703.594 439.88C698.453 443.42 669.054 441.918 661.266 441.963C655.438 442.057 649.903 442.039 644.491 439.776C642.706 433.473 643.388 417.47 643.494 410.134C628.814 409.872 606.57 412.353 592.485 407.753C586.715 405.868 583.698 399.933 581.645 394.567L445.921 394.684C436.362 414.468 426.489 410.207 407.373 410.026L380.555 410.009C380.399 418.203 380.987 426.264 380.641 434.472C380.392 440.397 376.738 441.02 371.571 441.872C369.204 441.948 365.717 442.314 363.437 442.025C357.989 441.334 322.439 444.126 321.528 438.876C319.392 423.915 320.364 407.033 320.721 391.87C321.004 379.857 318.558 352.047 322.195 341.594C324.116 339.533 331.976 339.909 334.84 339.993C343.942 340.26 352.747 340.297 361.829 339.713C363.162 339.647 364.496 339.601 365.831 339.576C386.238 339.245 380.609 353.964 380.453 369.402C395.996 369.648 419.48 367.029 434.468 371.544C439.787 373.147 443.239 380.051 445.326 385.014L529.641 384.998C546.664 384.997 564.795 384.673 581.708 385.329C588.426 366.693 602.015 369.274 618.382 369.45C626.761 369.567 635.14 369.602 643.519 369.555Z"/><path d="M652.633 349.119L695.503 349.138L695.557 432.501L675.75 432.502L652.495 432.496L652.51 410.285C661.466 408.201 668.97 404.371 671.346 394.693C672.709 389.131 671.67 383.252 668.485 378.493C664.4 372.372 659.237 370.679 652.569 369.296L652.633 349.119Z"/><path d="M363.085 349.259L371.561 349.108L371.561 369.03C369.573 369.636 367.942 370.18 366.083 371.147C360.865 373.85 356.962 378.549 355.261 384.174C353.665 389.684 354.43 395.609 357.374 400.532C360.886 406.394 365.392 408.327 371.57 409.908L371.558 432.502L355.956 432.417L329.917 432.408C329.879 405.744 329.288 375.739 330.08 349.337C340.455 348.997 352.579 349.266 363.085 349.259Z"/><path d="M374.83 378.659C385.054 378.238 426.391 376.389 432.548 380.969C434.691 382.562 435.831 385.465 436.242 388.016C436.774 391.313 436.228 394.545 434.166 397.235C432.15 399.864 429.419 400.369 426.294 400.687C416.681 400.956 374.125 402.079 368.348 398.54C366.273 397.29 364.798 395.246 364.265 392.883C362.369 384.72 367.135 379.874 374.83 378.659Z"/><path d="M607.41 378.72L634.071 378.604C642.046 378.508 661.837 376.171 662.604 388.117C663.335 399.489 655.191 400.765 646.301 400.983C636.375 400.794 626.448 400.714 616.521 400.743C610.783 400.719 605.74 400.856 599.775 400.216C590.264 399.195 587.853 389.235 593.116 382.297C595.744 378.832 603.274 378.923 607.41 378.72Z"/><path fill="#FEFDFE" d="M661.549 586.711C669.329 586.064 694.791 586.026 702.938 588.73C703.871 589.218 704.578 593.781 704.584 594.49C704.663 604.776 706.476 682.879 703.666 686.493C696.205 690.805 674.58 688.382 665.322 688.95C660.686 689.235 648.673 689.12 645.259 686.27C642.974 681.393 643.906 665.16 644.024 658.991C633.297 658.944 622.53 659.762 611.77 659.247C595.369 658.461 588.924 659.008 581.656 642.993L446.491 643.015C438.846 662.145 424.61 659.239 407.429 659.062C398.517 658.964 389.606 658.917 380.694 658.922C380.684 680.128 387.96 688.691 363.875 689.144C356.059 689.418 328.1 690.182 322.817 687.205C321.966 685.052 321.229 681.164 321.186 678.791C320.715 652.839 320.815 626.835 321.031 600.876C321.061 597.194 321.043 593.379 321.66 589.751C325.02 584.538 364.279 587.455 372.043 587.051C381.776 586.545 381.579 594.7 381.557 601.845C381.541 606.865 381.46 612.636 381.379 618.007C393.791 618.055 427.013 616.043 436.567 620.782C442.009 623.481 444.56 628.38 446.349 633.895L581.497 634.006C584.242 627.151 589.421 619.32 597.159 618.546C611.916 617.069 629.107 617.935 643.931 618.009C643.777 607.536 643.445 599.331 644.719 588.872C649.725 587.17 656.184 587.051 661.549 586.711Z"/><path d="M330.01 596.007L372.009 595.997L372.023 617.553C348.722 625.713 349.201 649.925 370.248 658.555C371.594 659.107 371.609 660.152 371.89 661.403L371.865 679.5L330.128 679.502L330.01 596.007Z"/><path d="M653.162 596.115L696 596.136L696.005 679.501L676.75 679.502L653.258 679.498L653.291 658.914C657.092 658.221 659.999 657.668 663.409 655.581C667.951 652.857 671.14 648.35 672.197 643.16C673.346 637.571 672.206 631.755 669.032 627.013C664.934 620.904 659.846 619.11 653.122 617.867L653.162 596.115Z"/><path d="M386.295 626.732C397.391 626.404 408.609 626.467 419.7 626.75C432.457 627.076 438.178 628.3 437.431 642.289C432.375 651.259 425.606 650.057 416.625 650.089C408.029 650.114 373.417 651.64 367.945 647.514C365.335 645.545 363.815 642.244 363.541 639.031C363.281 635.972 364.259 633.193 366.325 630.931C371.043 625.767 379.926 626.832 386.295 626.732Z"/><path d="M606.45 626.719C613.807 626.584 621.423 626.699 629.08 626.762C637.546 626.833 651.054 625.234 658.515 628.98C663.389 631.427 664.569 641.247 661.15 645.337C657.944 649.173 652.98 649.508 648.318 649.965C639.497 650.008 630.657 649.631 621.733 649.809C614.538 649.842 608.095 649.98 600.882 649.527C590.654 648.883 587.803 637.773 593.386 630.426C596.013 626.968 602.357 626.961 606.45 626.719Z"/><path fill="#FEFDFE" d="M643.473 740.124C643.479 733.574 641.414 718.008 644.267 712.802C645.433 710.674 647.473 709.397 649.784 708.821C655.029 707.514 698.343 707.97 701.69 710.116C702.932 710.912 703.986 712.209 704.273 713.673C706.008 722.499 705.117 741.773 705.129 751.536C705.221 765.208 705.094 778.88 704.748 792.548C704.623 796.985 705.519 805.663 703.26 809.256C701.796 810.327 701.917 810.278 700.125 810.557C691.753 810.577 650.163 812.754 645.784 808.593C642.421 805.397 643.867 785.824 643.975 780.502C631.723 780.412 600.71 782.841 591.222 777.409C586.269 774.573 584.009 770.652 582.673 765.3C537.199 764.415 491.17 765.349 445.629 765.493C439.817 783.226 425.664 780.57 410.426 780.544L380.946 780.498C380.731 788.563 381.719 797.007 380.782 804.798C380.432 807.717 378.713 808.912 376.447 810.471C366.888 811.076 329.073 812.499 322.541 808.925C320.079 805.627 320.607 787.46 320.616 782.485C320.659 760.073 320.258 737.607 320.758 715.206C320.857 710.764 323.062 709.489 326.972 708.749L355.62 708.578C361.652 708.548 374.992 707.578 379.407 711.463C382.098 717.207 381.047 732.794 380.923 740.008C393.593 740.052 426.565 737.732 436.273 742.879C441.728 745.772 444.265 750.327 445.996 756.016L581.887 756.14C586.484 743.323 593.925 740.065 606.933 739.896C619.123 739.737 631.284 739.972 643.473 740.124Z"/><path d="M652.536 717.579L695.564 717.757L695.864 801.501L676.75 801.502L653.006 801.496L653.127 780.615C657.502 779.591 660.573 778.851 664.287 776.008C668.533 772.794 671.263 767.969 671.83 762.673C673.253 749.973 664.644 741.629 652.492 740.317L652.536 717.579Z"/><path d="M363.229 717.736L372.005 717.719L372.025 739.749C364.311 742.905 358.343 746.236 355.567 754.825C353.986 759.766 354.515 765.14 357.029 769.678C360.409 775.866 364.963 778.531 371.377 780.395C372.043 786.402 371.739 795.231 371.685 801.413L356.75 801.417L330.131 801.412L330.01 717.894C341.083 717.967 352.157 717.915 363.229 717.736Z"/><path d="M389.271 749.235C402.839 748.925 417.456 749.337 431.076 749.517C435.286 752.787 438.095 756.788 437.459 762.336C436.181 773.479 421.248 771.569 413.342 771.539C401.197 771.739 386.416 772.278 374.455 771.044C362.069 769.765 360.117 756.333 371.715 749.541L389.271 749.235Z"/><path d="M598.571 749.528C614.596 749.245 630.644 749.14 646.667 749.382C651.96 749.462 658.415 749.298 661.32 754.6C665.319 761.902 661.911 767.613 655.044 771.092C638.641 772.872 618.433 771.256 601.789 771.198C598.568 771.187 595.129 769.521 593.216 766.836C591.403 764.314 590.711 761.156 591.303 758.106C592.168 753.856 595.143 751.64 598.571 749.528Z"/><path fill="#FEFDFE" d="M660.182 218.265C665.222 218.116 697.952 216.451 703.205 221.278C703.813 221.836 704.68 228.882 704.701 230.471C705.044 256.982 704.941 283.585 704.68 310.1C704.657 312.48 704.162 315.68 703.316 317.871C700.604 319.881 689.56 320.017 686.158 319.727C676.856 318.935 651.972 321.869 645.005 317.25C642.452 313.341 643.456 293.43 643.517 287.6C631.665 287.499 600.908 289.8 591.876 285.114C586.212 282.176 584.104 277.62 582.207 271.877C537.054 271.46 491.899 271.509 446.747 272.023C437.208 290.61 428.418 288.248 409.846 288.056L380.529 287.718C380.675 297.783 381.484 308.424 378.957 318.105C375.373 319.368 372.593 319.46 368.876 319.68C362.36 320.236 355.078 319.953 348.517 319.83C339.242 319.657 329.952 320.96 321.219 317.455C320.115 311.348 320.411 289.248 320.508 281.943C320.761 262.789 319.892 241.464 321.157 222.493C322.295 220.668 322.439 220.357 323.972 218.907C328.837 217.621 364.124 218.581 371.691 218.7C373.759 218.732 377.561 220.006 379.493 221.125C382.453 225.407 381.029 240.885 380.948 247.136C396.223 246.933 420.787 245.56 435.604 249.391C440.609 250.685 443.958 257.913 445.887 262.499L581.85 262.487C589.714 242.643 606.171 247.823 623.647 247.26C630.228 247.048 636.985 247.289 643.586 247.285C643.662 227.805 637.174 218.437 660.182 218.265Z"/><path d="M652.933 227.501L695.502 227.596L695.558 310.5L676.25 310.502L652.495 310.497L652.589 288.074C656.983 287.233 660.197 286.437 663.94 283.694C668.316 280.547 671.22 275.753 671.984 270.418C672.751 265.047 671.34 259.592 668.065 255.266C664.044 250.014 659.121 248.158 652.889 247.219L652.933 227.501Z"/><path d="M329.936 227.565C343.879 227.716 357.968 227.463 371.878 227.923C371.93 234.219 371.877 240.515 371.72 246.808C354.585 252.647 348.263 269.715 361.479 283.005C364.754 286.299 370.992 285.704 371.508 291.375L371.502 310.411L330.011 310.496L329.936 227.565Z"/><path d="M372.554 256.626C382.773 256.315 393.666 256.143 404.227 256.472C415.948 256.836 440.555 251.76 436.294 271.583C435.634 274.654 431.085 277.3 428.493 278.539C410.936 278.913 392.113 278.776 374.494 278.411C367.302 278.263 364.717 273.183 363.427 266.75C364.963 260.625 366.761 258.878 372.554 256.626Z"/><path d="M598.133 256.577C617.257 256.156 636.387 256.135 655.512 256.512C665.734 263.683 665.56 271.93 654.916 278.421C638.432 279.043 621.821 279.147 605.327 278.556C600.669 278.389 594.806 278.226 592.225 273.717C590.519 270.779 590.091 267.27 591.039 264.007C592.234 260.044 594.725 258.45 598.133 256.577Z"/><path fill="#FEFDFE" d="M741.256 736.7C749.663 735.933 760.61 736.741 769.191 736.711C775.178 736.69 817.376 735.423 818.109 739.494C820.189 751.051 821.034 777.427 818.019 788.717C814.786 789.714 812.601 789.966 809.257 790.442C803.715 790.646 797.142 790.719 791.589 790.549C772.926 789.978 752.537 791.679 734.173 789.729C726.301 788.893 730.191 744.092 732.083 738.068C735.588 737.209 737.667 737.04 741.256 736.7Z"/><path d="M739.461 746.426C763.159 746.189 786.859 746.196 810.557 746.446L810.554 781.423C786.843 781.272 763.132 781.269 739.422 781.413L739.461 746.426Z"/><path fill="#FEFDFE" d="M734.371 370.597L785.322 370.449C794.308 370.433 804.915 369.348 813.677 371.194C815.33 371.543 817.569 372.013 818.422 373.624C820.301 377.17 820.597 414.301 818.74 419.022C817.949 421.031 816.795 421.827 814.881 422.669C800.092 423.929 784.753 422.795 769.9 422.636C760.148 422.531 749.981 423.327 740.287 422.64C737.991 422.478 733.067 422.071 731.445 420.494C728.891 418.01 729.502 382.147 730.189 377.661C730.749 374.013 731.423 372.788 734.371 370.597Z"/><path d="M739.078 379.656C762.526 380.507 786.697 379.38 810.108 379.784C810.188 391.042 810.151 402.3 809.995 413.557L739.524 413.555C738.413 405.407 738.821 388.198 739.078 379.656Z"/><path fill="#FEFDFE" d="M214.093 736.616C230.205 736.382 246.318 736.271 262.431 736.284C271.282 736.3 281.826 735.396 290.404 737.509C292.061 737.917 293.473 738.417 294.308 739.993C296.249 743.662 296.572 782.432 294.789 786.558C293.899 788.619 292.584 789.326 290.555 790.071C275.126 790.263 259.696 790.337 244.266 790.291C235.152 790.355 223.07 791.823 214.352 789.672C212.768 789.281 210.868 788.729 210.046 787.213C208.083 783.59 207.675 745.956 209.117 741.505C210.034 738.676 211.506 737.873 214.093 736.616Z"/><path d="M218.325 746.428C240.924 746.254 263.525 746.221 286.124 746.33L286.139 781.003L218.299 781.01L218.325 746.428Z"/><path fill="#FEFDFE" d="M792.196 246.267C800.916 245.893 809.716 245.77 818.057 248.425C819.678 255.38 821.161 290.759 817.363 296.166C812.168 299.551 765.478 297.954 755.949 297.883C748.545 297.951 737.495 298.75 730.846 295.885C729.399 289.112 728.242 252.974 730.921 248.555C735.676 245.393 749.015 246.377 755.036 246.398C767.422 246.557 779.811 246.514 792.196 246.267Z"/><path d="M738.784 255.508C762.513 255.198 786.661 255.443 810.415 255.504L810.433 288.497L738.573 288.572L738.784 255.508Z"/><path fill="#FEFDFE" d="M733.999 494.593C747.353 494.467 811.015 492.417 818.358 497.137C820.261 500.457 820.008 534.82 819.353 540.704C819.09 543.062 817.093 544.33 815.145 545.453C799.119 545.813 783.015 545.493 766.981 545.508C757.803 545.516 748.046 546.256 738.946 545.408C736.782 545.206 732.08 544.615 730.721 542.828C728.671 540.134 729.165 504.257 729.588 499.611C731.348 496.932 731.439 496.596 733.999 494.593Z"/><path d="M765.288 503.738L810.582 503.502C811.135 514.338 810.75 525.554 810.539 536.429C801.819 536.29 793.096 536.269 784.375 536.369C769.468 536.702 753.487 536.409 738.496 536.405L738.509 504.021L765.288 503.738Z"/><path fill="#FEFDFE" d="M226.905 370.739C237.627 370.448 285.942 369.941 293.97 372.695C298.167 377.526 296.155 401.647 296.567 409.151C297.427 424.82 290.358 422.871 278.638 423.093C267.943 422.974 218.441 423.938 211.945 421.571C207.031 416.677 209.916 392.939 209.012 385.388C208.544 381.477 209.632 375.37 211.911 372.087C214.59 370.292 223.302 370.765 226.905 370.739Z"/><path d="M218.555 380.116C241.331 379.816 264.109 379.888 286.882 380.333C286.948 391.051 287.157 402.917 286.796 413.559C264.033 413.812 241.267 413.816 218.503 413.57L218.555 380.116Z"/><path fill="#FEFDFE" d="M212.77 494.61L259.15 494.545C268.639 494.485 278.84 493.686 288.226 495.03C290.064 495.294 294.254 495.874 295.221 497.494C297.324 501.017 296.561 536.511 295.602 542.407L292.266 545.478L283.456 545.577C268.383 545.698 253.311 545.739 238.238 545.7C231.072 545.677 223.165 546.211 216.081 545.256C214.228 545.007 210.526 544.392 209.352 542.696C207.077 539.41 207.271 502.858 209.001 498.105C209.714 496.147 210.983 495.475 212.77 494.61Z"/><path d="M234.29 503.738C251.243 503.341 269.576 503.699 286.671 503.57C287.269 513.746 287.028 526.07 286.585 536.194C281.657 536.039 276.567 536.053 271.625 536.003L217.574 536.115L217.604 503.905C223.167 503.892 228.729 503.836 234.29 503.738Z"/><path fill="#FEFDFE" d="M733.821 618.55C752.483 618.203 771.15 618.21 789.811 618.572C795.773 618.634 811.647 618.244 816.358 619.682C821.453 624.398 819.556 637.448 819.401 643.968C819.203 652.277 822.036 661.847 816.218 668.525L805.897 668.823C795.819 669.019 785.731 668.647 775.648 668.759C764.075 668.888 749.986 669.604 738.679 668.415C736.786 668.216 732.553 667.772 731.33 666.203C728.899 663.086 730.301 628.714 730.568 622.711C731.668 620.931 732.424 620.14 733.821 618.55Z"/><path d="M739.256 627.502L810.017 627.547L810.016 659.487L739.218 659.491C739.076 648.828 739.089 638.164 739.256 627.502Z"/><path fill="#FEFDFE" d="M212.23 246.521L260.461 246.406C267.182 246.403 289.077 245.36 294.092 248.556C296.748 252.718 295.593 266.568 295.49 271.948C295.342 279.614 298.269 291.679 292.693 297.467C272.029 297.916 250.98 297.192 230.277 297.865C227.314 297.962 212.594 297.399 210.985 295.368C207.88 288.687 209.032 276.79 209.263 269.481C209.505 261.818 207.635 252.072 212.23 246.521Z"/><path d="M218.523 255.5L286.535 255.487L286.54 288.466L218.502 288.39L218.523 255.5Z"/><path fill="#FEFDFE" d="M215.166 617.736C238.021 616.142 263.722 618.404 286.807 618.041C290.503 618.659 295.909 618.587 295.966 623.405C296.109 635.675 296.074 647.613 296.467 659.862C296.635 665.11 293.56 667.286 288.795 667.875C276.045 668.466 219.285 670.037 211.328 666.261C207.223 662.22 209.292 639.869 208.705 633.38C208.159 627.351 207.929 619.351 215.166 617.736Z"/><path d="M218.355 626.711C239.277 626.536 266.348 626.098 286.868 626.928C286.982 637.577 287.031 648.226 287.014 658.876C264.345 659.174 240.99 658.893 218.267 658.895C218.226 648.167 218.256 637.439 218.355 626.711Z"/></svg>