<?xml version="1.0" encoding="utf-8" ?><svg xmlns="http://www.w3.org/2000/svg" xmlns:xlink="http://www.w3.org/1999/xlink" width="1024" height="1024" viewBox="0 0 1024 1024"><path fill="#FEFEFE" d="M177.207 244.618C182.28 244.205 190.134 244.447 195.441 244.457L227.882 244.506L333.395 244.493L419.564 244.464C424.913 244.458 430.357 244.362 435.699 244.445C445.275 244.719 455.364 243.839 464.857 245.004C487.522 247.786 506.742 266.819 509.937 289.393C511.034 297.143 510.614 305.731 510.564 313.541L510.494 344.412L510.55 462.466L510.454 642.496L510.463 696.662C510.496 707.471 511.005 718.798 510.15 729.542C508.044 756.019 490.468 774.6 464.507 778.352C459.154 779.49 450.482 779.045 444.818 779.031L415.073 778.985L298.828 778.826L220.625 778.887C206.706 778.929 192.966 779.298 179.058 778.588C156.05 777.413 135.808 760.391 131.734 737.547C129.95 727.545 130.36 717.002 130.362 706.865L130.381 671.593L130.373 537.628L130.377 371.396L130.352 323.509C130.297 313.795 129.767 301.69 130.561 292.229C131.248 283.289 134.277 274.686 139.343 267.287C148.522 253.906 161.7 247.605 177.207 244.618ZM460.376 770.658C482.29 769.322 499.485 753.469 501.765 731.49C502.695 722.53 502.414 713.401 502.423 704.398L502.459 664.287L502.534 532.766L502.492 374.361L502.514 324.324C502.565 301.926 505.822 279.012 486.307 263.103C476.421 255.044 467.297 252.576 454.549 252.484C442.941 252.401 431.284 252.513 419.662 252.553L340.471 252.726L234.602 252.587C224.719 252.566 214.757 252.404 204.885 252.486C197.464 252.547 188.47 251.992 181.204 252.696C172.905 253.492 166.595 254.936 159.362 259.251C135.101 273.723 138.004 299.089 137.993 323.465L137.979 370.243L138.041 524.135L138.204 662.462L138.129 700.326C137.941 720.914 135.475 745.81 153.347 760.356C159.887 765.774 167.837 769.216 176.264 770.276C187.464 771.662 210.828 770.993 222.95 770.99L308.478 770.976L409.448 770.982L440.989 770.985C446.877 770.983 454.633 771.162 460.376 770.658Z"/><path fill="#FEFEFE" d="M237.957 363.6C243.952 363.097 250.246 364.519 255.497 367.411C270.007 375.404 267.568 392.251 267.558 406.118L267.556 444.621L267.58 477.125C267.665 496.811 270.58 518.52 245.645 523.506C222.328 524.738 214.846 508.585 216.119 488.555C216.458 483.227 216.208 476.71 216.215 471.252L216.228 434.854C216.22 422.907 216.095 410.697 216.076 398.772C216.046 380.152 217.929 368.803 237.957 363.6ZM244.429 515.574C252.89 514.008 258.419 510.052 259.278 500.962C260.067 492.608 259.959 484.324 259.967 475.943L259.984 441.635L259.986 410.519C259.99 394.817 263.396 372.613 241.243 371.657C229.539 373.517 225.31 377.531 224.84 389.383C224.083 408.493 224.462 427.665 224.434 446.795L224.269 477.004C224.155 494.615 220.35 515.868 244.429 515.574Z"/><path fill="#FEFEFE" d="M395.756 363.608C408.255 362.788 421.017 367.231 424.97 380.255C427.488 388.549 426.563 399.862 426.53 408.686L426.534 443.444L426.551 477.398C426.559 497.227 429.993 515.899 406.616 522.855C394.823 525.321 381.282 519.547 377.197 508.002C374.439 500.207 375.33 487.018 375.365 478.619L375.456 442.722L375.402 408.862C375.343 388.256 371.914 371.281 395.756 363.608ZM403.872 515.466C414.3 512.804 418.479 506.929 418.743 496.306C419.089 482.324 418.812 468.282 418.818 454.284L418.848 417.021C418.865 405.502 419.815 392.479 416.98 381.267C415.228 374.342 404.381 371.151 397.932 371.626C386.547 374.746 383.692 380.317 383.133 391.993C383.157 404.111 382.87 416.803 383.252 428.877C384.053 454.153 380.713 480.679 384.928 505.588C386.202 513.118 397.514 515.571 403.872 515.466Z"/><path fill="#FEFEFE" d="M318.16 607.76C334.941 606.14 349.872 618.398 351.55 635.173C353.229 651.949 341.023 666.922 324.254 668.659C307.401 670.405 292.338 658.126 290.651 641.267C288.964 624.409 301.296 609.389 318.16 607.76ZM324.85 660.289C337.089 658.188 345.282 646.529 343.111 634.301C340.94 622.073 329.234 613.947 317.019 616.188C304.902 618.411 296.856 630.003 299.009 642.132C301.163 654.261 312.708 662.374 324.85 660.289Z"/><path fill="#FEFEFE" d="M561.358 244.66C565.093 244.24 572.714 244.387 576.614 244.403L602.677 244.494L691.043 244.497L794.154 244.514L824.694 244.484C838.43 244.439 850.929 243.496 863.171 249.38C888.407 261.51 896.031 284.862 893.84 311.128C893.236 318.368 893.63 328.895 893.623 336.399L893.606 441.913L893.625 634.967L893.655 694.5C893.685 705.722 894.334 717.182 893.479 728.352C891.36 756.015 875.237 773.475 848.449 778.363C838.82 779.658 814.901 778.935 803.761 778.917L717.536 778.926L613.372 778.956C596.666 778.959 579.068 779.594 562.492 778.689C553.643 778.206 543.236 774.641 535.979 769.393C524.622 761.18 517.003 748.783 514.805 734.942C513.696 727.537 514.071 716.805 514.122 709.03L514.168 676.07L514.091 548.166L514.136 377.758L514.011 327.421C513.875 306.323 511.161 283.019 524.64 265.246C533.983 252.928 546.268 246.826 561.358 244.66ZM843.968 770.792C857.102 769.464 867.36 764.603 875.895 754.346C888.249 739.498 885.892 718.685 885.921 700.44L885.974 652.421L885.97 498.279L885.918 360.644L885.901 321.391C885.937 299.682 888.49 276.867 868.796 262.241C858.83 254.84 852.1 252.755 839.464 252.582C827.019 252.412 814.52 252.604 802.051 252.67L718.6 252.939L616 252.759L584.552 252.58C578.83 252.531 570.157 251.982 564.727 252.702C541.517 255.164 524.599 269.227 522.416 293.538C521.62 302.39 522.031 311.649 522.037 320.562L522.073 367.195L522.098 516.025L522.101 660.263L522.059 703.357C522.011 724.605 519.508 745.715 537.897 760.759C544.312 766.007 552.382 769.145 560.654 770.177C575.556 771.419 591.545 771.016 606.562 770.992L682.341 770.969L788.677 770.967C803.278 770.975 817.879 771.009 832.479 771.01C835.953 771.01 840.566 771.179 843.968 770.792Z"/><path fill="#FEFEFE" d="M777.52 363.554C789.507 362.625 802.819 367.302 806.086 380.268C808.864 391.296 807.984 404.147 807.974 415.595L807.982 452.566C807.983 464.71 808.001 476.935 807.959 489.072C807.903 505.538 805.948 518.447 787.468 522.855C780.546 524.009 774.868 523.178 768.702 519.767C753.143 511.16 756.298 489.305 756.355 474.508L756.388 440.546L756.416 408.322C756.45 388.106 753.557 369.961 777.52 363.554ZM784.964 515.505C793.761 512.861 799.147 508.472 799.411 498.725C800.385 462.729 799.946 426.594 799.546 390.582C799.402 377.578 792.205 370.682 778.908 371.59C769.595 374.377 764.677 379.766 764.546 389.667C764.077 425.116 763.995 460.603 764.358 496.055C764.493 509.188 771.84 515.908 784.964 515.505Z"/><path fill="#FEFEFE" d="M619.041 363.574C630.75 362.693 644.151 368.689 647.271 381.073C649.351 389.332 648.568 401.697 648.557 410.406L648.554 447.074L648.548 478.814C648.532 498.495 651.137 518.503 626.372 523.415C620.688 523.906 614.678 522.898 609.678 520.181C598.264 513.979 597.706 503.731 597.373 492.266C597.113 483.284 597.16 474.664 597.296 465.703C597.422 455.755 597.475 445.806 597.454 435.857L597.452 405.812C597.451 385.406 594.894 369.773 619.041 363.574ZM625.439 515.506C630.475 513.971 635.607 511.743 638.308 506.924C639.76 504.335 639.987 501.499 640.197 498.594C641.4 481.936 640.507 464.62 640.513 447.9C640.517 436.583 641.831 389.802 639.027 381.565C637.795 377.944 634.926 375.107 631.497 373.528C628.018 371.928 624.222 371.438 620.419 371.603C611.344 373.89 605.942 379.237 605.525 388.799C604.727 407.038 605.126 425.332 604.995 443.589C605.077 454.036 604.291 496.488 606.4 503.946C607.589 508.11 610.45 511.594 614.302 513.57C618.28 515.579 621.2 515.66 625.439 515.506Z"/><path fill="#FEFEFE" d="M698.818 607.788C715.498 605.55 730.85 617.212 733.168 633.881C735.486 650.55 723.897 665.958 707.239 668.355C690.469 670.767 674.934 659.083 672.601 642.302C670.268 625.52 682.026 610.042 698.818 607.788ZM706.741 660.364C718.877 658.284 727.051 646.787 725.029 634.64C723.007 622.494 711.549 614.264 699.393 616.228C687.154 618.204 678.856 629.758 680.892 641.988C682.928 654.218 694.521 662.46 706.741 660.364Z"/></svg>