<?xml version="1.0" encoding="utf-8" ?><svg xmlns="http://www.w3.org/2000/svg" xmlns:xlink="http://www.w3.org/1999/xlink" width="1024" height="1024" viewBox="0 0 1024 1024"><path fill="#FEFDFE" d="M623.405 231.571C634.412 231.238 646.425 231.584 657.902 231.48C668.285 232.317 682.152 229.515 691.68 233.39C693.247 234.027 692.558 255.174 692.526 257.963C701.313 257.889 742.284 256.665 746.681 259.739C748.04 262.582 748.301 286.262 746.127 288.602C740.444 290.293 700.987 289.514 692.515 289.482L692.509 315.638C700.409 315.518 741.576 314.317 746.04 316.553C746.891 316.98 747.074 317.576 747.279 318.467C748.016 321.66 747.983 343.222 746.279 345.332C743.987 348.168 699.119 346.883 692.497 346.885C692.535 352.511 693.18 367.566 691.465 371.986C688.588 375.291 671.762 373.876 666.888 373.893L641.899 373.981C636.78 373.996 626.035 374.75 622.061 372.094C619.999 368.927 620.543 363.813 620.572 359.871C614.622 359.915 589.644 361.533 586.125 358.267C585.065 357.284 584.574 355.737 584.386 354.345C583.923 350.928 584.449 346.967 584.483 343.492L584.488 320.025C555.798 320.135 527.429 319.456 498.645 320.018C482.395 336.053 466.019 351.96 449.517 367.736C449.926 373.462 449.735 380.255 449.605 386.023C503.176 386.327 568.168 395.209 610.616 430.959C638.929 454.803 635.599 486.416 612.142 512.251C637.489 538.215 636.378 566.711 612.255 592.9C628.945 610.004 636.402 632.681 625.338 655.161C621.863 662.221 617.855 667.025 612.813 672.936C629.644 688.086 635.577 709.147 626.597 730.137C604.458 775.61 523.924 790.794 477.541 792.218C418.9 794.018 343.618 790.458 296.039 750.801C285.279 741.833 276.254 727.031 275.855 712.857C275.384 695.423 282.845 684.956 293.911 672.769C283.748 660.345 276.654 651.509 275.902 634.299C275.162 617.327 283.069 604.191 294.373 592.172C270.356 565.502 267.635 538.14 294.676 512.099C274.837 493.122 268.306 465.588 285.699 442.814C315.434 403.878 374.039 394.648 418.982 387.367C418.84 376.391 418.808 365.413 418.888 354.436C423.007 349.755 429.804 343.373 434.364 338.845C444.438 328.757 454.623 318.781 464.917 308.919C470.271 303.78 481.514 292.02 487.072 288.65C497.715 288.114 510.328 288.411 521.12 288.412C542.353 288.52 563.585 288.415 584.815 288.096C584.527 283.609 583.974 248.295 585.623 246.671C589.029 243.315 614.976 244.946 620.925 244.999L620.822 243.115C620.578 238.284 620.111 235.227 623.405 231.571ZM319.911 494.678C365.543 471.745 413.442 466.159 463.812 466.543C509.466 468.139 545.157 475.3 587.084 493.744C593.369 487.516 598.643 481.719 598.95 472.163C599.155 465.761 594.516 458.105 589.795 453.986C555.527 424.086 488.538 418.729 446.115 419.635C445.178 419.656 444.242 419.684 443.306 419.718C409.096 421.031 376.961 424.025 344.821 437.035C318.686 447.614 291.293 467.242 319.911 494.678ZM627.004 353.662C626.858 358.263 626.745 362.865 626.664 367.468L643.75 367.483C657.861 367.489 672.398 367.306 686.471 367.516C686.519 324.449 686.945 280.711 686.531 237.695L634.176 237.739L626.512 237.832L626.587 250.986L591.047 250.993L590.954 353.51C602.486 353.541 615.604 353.274 627.004 353.662ZM741.491 321.499C725.303 321.521 708.592 321.768 692.451 321.548L692.43 340.904L741.49 340.661L741.491 321.499ZM741.88 283.545L741.947 264.521C725.932 264.428 708.349 264.752 692.467 264.317L692.516 283.516L741.88 283.545Z"/><path fill="#060706" d="M488.796 294.494C520.737 294.288 552.679 294.27 584.621 294.44L584.552 314.185C555.646 313.495 524.982 314.026 495.924 314.048C484.875 325.692 472.517 337.054 461.184 348.476C456.053 353.647 448.209 360.134 443.733 365.546C443.292 373.291 443.636 384.393 443.818 392.304L448.896 392.309C459.763 392.339 473.314 392.206 484.505 393.451C526.624 398.135 578.027 407.641 609.706 438.166C619.441 447.547 624.865 458.962 624.619 472.291C624.286 490.353 614.843 500.674 602.818 512.48C605.606 514.955 608.13 517.326 610.669 519.979C632.513 542.792 627.395 571.052 604.642 591.168C578.289 614.466 542.142 624.222 508.063 629.876C496.81 631.743 486.476 633.121 475.114 631.806C467.832 631.083 459.533 631.151 452.191 631.038C440.728 630.862 429.043 632.324 417.561 631.983C375.099 627.705 325.546 615.329 294.766 583.971C274.944 563.778 278.273 534.665 298.855 516.352C301.309 518.157 312.555 525.665 313.675 526.981L313.159 527.743C305.34 535.212 299.243 543.99 300.591 555.472C302.082 568.174 311.13 575.726 320.368 583.359C389.487 548.856 491.701 550.125 564.37 573.616C572.343 576.193 580.077 580.101 587.642 583.712C598.213 575.991 608.687 561.103 605.44 547.403C602.838 536.425 597.126 529.735 587.858 523.726C565.737 538.777 518.39 548.994 492.067 551.556C483.13 552.426 466.761 550.449 456.491 550.424C444.561 549.225 429.582 553.138 418.107 551.855C379.702 546.975 332.53 537.328 302.451 511.376C251.976 467.827 301.045 423.14 347.722 409.527C375.337 401.472 396.275 395.579 424.658 393.411C424.82 381.203 424.869 368.993 424.804 356.784C429.935 350.725 441.789 340.343 447.843 334.307C461.214 320.974 475.044 307.413 488.796 294.494ZM319.911 494.678C365.543 471.745 413.442 466.159 463.812 466.543C509.466 468.139 545.157 475.3 587.084 493.744C593.369 487.516 598.643 481.719 598.95 472.163C599.155 465.761 594.516 458.105 589.795 453.986C555.527 424.086 488.538 418.729 446.115 419.635C445.178 419.656 444.242 419.684 443.306 419.718C409.096 421.031 376.961 424.025 344.821 437.035C318.686 447.614 291.293 467.242 319.911 494.678Z"/><path fill="#FEFDFE" d="M435.108 413.715C435.32 413.7 435.533 413.685 435.745 413.67C486.025 412.345 551.837 415.828 592.707 448.661C599.207 453.882 604.609 463.046 604.811 471.264C605.13 484.218 596.87 492.961 588.61 501.659C555.194 484.222 509.27 474.039 471.705 472.908C428.677 469.284 357.158 479.479 319.344 501.698C319.012 501.428 318.685 501.153 318.361 500.874C279.428 467.35 316.023 440.09 350.085 428.459C379.244 418.502 404.437 415.332 435.108 413.715ZM319.911 494.678C365.543 471.745 413.442 466.159 463.812 466.543C509.466 468.139 545.157 475.3 587.084 493.744C593.369 487.516 598.643 481.719 598.95 472.163C599.155 465.761 594.516 458.105 589.795 453.986C555.527 424.086 488.538 418.729 446.115 419.635C445.178 419.656 444.242 419.684 443.306 419.718C409.096 421.031 376.961 424.025 344.821 437.035C318.686 447.614 291.293 467.242 319.911 494.678Z"/><path fill="#FEFDFE" d="M434.091 492.783C441.168 492.226 450.056 492.41 457.302 492.354C496.056 492.058 534.23 497.19 570.009 512.691C538.585 528.11 507.404 533.027 472.731 534.786C428.903 536.863 377.695 532.421 338.028 512.374C365.496 499.153 404.067 494.506 434.091 492.783Z"/><path fill="#060706" d="M438.884 498.718C467.283 496.748 499.24 499.74 527.12 505.112C536.621 506.942 545.955 511.265 555.087 512.842C529.715 523.284 497.305 527.615 470.125 528.798C437.661 530.394 383.574 525.808 353.629 512.709C377.101 503.335 414.028 499.958 438.884 498.718Z"/><path fill="#FEFDFE" d="M446.044 575.728C481.439 574.967 536.255 580.123 568.941 594.598C537.598 608.839 496.969 614.167 462.875 614.694C428.668 615.298 391.129 611.987 358.397 601.786C353.06 600.123 344.545 597.193 340.017 594.371C345.317 591.497 352.952 589.259 358.84 587.569C387.804 579.254 416.164 576.844 446.044 575.728Z"/><path fill="#060706" d="M445.673 582.233C479.568 581.479 519.107 585.008 551.62 594.995C517.621 604.964 498.087 607.236 463.273 608.409C424.623 608.686 393.725 606.047 356.458 595.081C378.98 585.915 421.73 582.997 445.673 582.233Z"/><path fill="#060706" d="M299.187 596.531C302.805 598.764 310.033 604.437 313.742 607.168C292.43 629.193 297.51 643.545 318.356 662.457C383.42 631.27 492.504 630.489 561.006 651.66C581.703 658.057 609.879 672.415 620.25 692.487C625.177 701.882 626.093 712.87 622.791 722.951C617.042 740.919 599.096 753.962 583.034 762.182C523.453 792.674 412.429 793.148 349.821 772.872C325.744 765.074 297.551 752.177 285.616 728.476C281.002 719.314 280.039 709.379 283.256 699.613C286.783 689.758 291.333 683.761 298.681 676.563C303.609 680.46 308.907 684.147 314.021 687.816C311.601 690.334 309.1 692.834 307.07 695.687C302.951 701.471 300.997 707.889 302.354 714.994C304.331 725.35 312.548 733.1 320.908 738.807C367.745 770.779 471.662 770.325 525.755 760.241C550.859 755.561 585.377 746.315 600.348 724.119C604.025 718.668 605.893 712.517 604.499 705.954C602.447 696.289 595.382 689.494 587.458 684.279C546.23 707.582 492.781 713.94 445.376 712.831C398.042 711.723 332.59 701.457 296.902 666.698C288.34 658.359 280.697 644.227 281.453 631.999C282.342 617.627 288.766 606.182 299.187 596.531Z"/><path fill="#FEFDFE" d="M436.281 657.715C473.159 654.99 534.43 661.562 568.89 675.332C537.221 686.973 507.746 690.51 474.125 692.003C433.634 692.926 377.635 690.684 339.89 675.318C361.495 663.794 412.132 659.198 436.281 657.715Z"/><path fill="#060706" d="M431.269 664.213C438.35 663.676 448.827 663.821 456.042 663.809C487.017 663.757 519.762 667.205 549.727 675.574C528.473 681.522 498.863 684.643 476.875 685.543C440.475 687.655 393.811 684.318 358.548 674.91C377.241 668.858 411.746 665.294 431.269 664.213Z"/><path fill="#060706" d="M320.02 690.928C330.652 696.021 343.57 701.919 354.803 705.395C406.135 721.283 477.325 723.399 529.449 712.013C549.735 707.78 569.352 700.813 587.763 691.303C604.325 705.769 601.573 718.262 585.625 731.113C549.597 758.844 468.394 762.105 424.273 759.069C391.207 756.794 338.26 750.681 313.697 724.605C309.905 720.58 307.255 713.952 307.894 708.333C308.773 700.59 314.236 695.451 320.02 690.928Z"/><path fill="#060706" d="M319.032 530.28C326.174 533.008 334.335 537.965 341.874 540.802C358.877 547.201 377.076 551.474 394.821 555.116C385.507 556.474 376.243 558.148 367.043 560.136C352.398 563.692 334.516 569.278 321.02 576.075C318.954 574.476 317.011 572.724 315.208 570.834C300.856 555.872 305.497 542.886 319.032 530.28Z"/><path fill="#060706" d="M587.319 530.972C588.72 531.078 591.775 534.303 592.791 535.462C606.595 551.197 598.93 565.098 586.499 576.658C571.881 569.299 558.881 565.053 542.995 560.955C534.567 558.799 520.966 556.07 512.444 555.112C541.854 548.462 559.438 545.984 587.319 530.972Z"/><path fill="#060706" d="M319.484 610.41C340.438 621.337 371.743 632.475 395.268 634.954C385.477 636.5 376.022 637.984 366.293 639.943C348.183 644.225 336.748 648.361 319.552 654.984C300.279 640.347 303.269 625.47 319.484 610.41Z"/><path fill="#060706" d="M587.266 610.931C588.122 610.969 588.772 611.684 589.37 612.265C605.364 627.788 602.622 641.25 587.28 655.938C571.443 648.435 560.622 644.805 543.616 640.397C532.635 638.003 525.545 636.776 514.359 635.395C520.503 633.716 528.723 632.443 535.355 630.8C553.42 626.37 570.859 619.695 587.266 610.931Z"/><path fill="#060706" d="M606.685 597.405C608.136 597.583 608.804 598.023 609.777 599.08C630.544 621.656 629.064 648.142 607.647 669.125C606.032 667.67 604.055 666.157 602.342 664.778C599.335 662.731 595.366 660.451 592.208 658.517C611.577 644.05 609.11 623.418 592.9 607.371L606.685 597.405Z"/></svg>