<svg xmlns="http://www.w3.org/2000/svg" width="1024" height="1024" viewBox="0 0 1024 1024"><path fill="#181818" d="M0 0h1024v1024H0z"/><path fill="#fdce28" d="m526.076 303.048 68.166.108c13.99.001 31.026-.765 44.721.855 35.043 4.146 65.876 29.301 79.147 61.658 7.88 17.021 6.028 33.509 6.784 51.251 1.662 39.032-7.702 71.68-40.569 96.668a130 130 0 0 1 11.94 10.761 94 94 0 0 1 18.295 25.664c12.787 25.813 9.804 41.95 10.322 69.495 1.539 43.835-28.593 85.445-70.773 97.439-17.859 5.078-44.072 3.434-63.342 3.381l-56.59-.213c9.599-13.258 20.749-28.755 29.538-42.384l.888-1.114c1.942-.414 13.574-.197 16.126-.189l38.404.121c18.098.026 32.669-3.345 46.152-16.816 17.919-17.903 16.455-37.374 16.453-60.526.401-18.363-4.398-33.744-17.372-47.136-19.535-20.166-43.376-16.659-68.75-16.642l-68.907.04.041-44.48 66.263.009c11.378.008 34.382.705 44.571-1.62a55.36 55.36 0 0 0 26.823-14.451c12.194-12.035 17.411-26.685 17.167-43.738-.264-26.341 3.794-47.184-16.652-67.606-20.319-20.295-41.686-16.067-67.829-16.056l-70.918-.038c-.45-14.204-.161-30.137-.099-44.441"/><path fill="#fdce28" d="M395.494 491.214c11.067-.532 24.306-.236 35.502-.213l59.498.097c-8.514 13.959-20.833 30.639-30.42 44.286-13.08.215-27.183.08-40.325.054-23.83-.047-41.808-1.943-60.451 16.327-11.145 10.922-16.83 25.046-16.37 40.489.857 28.743-5.071 46.678 17.252 68.982a50.8 50.8 0 0 0 24.259 13.758c9.766 2.375 31.259 1.521 42.454 1.511l64.732-.043 6.128.021q.087 21.937-.149 43.873l-62.474.023c-39.169.057-70.137 4.295-102.069-24.049-28.858-25.616-35.274-54.696-33.428-91.821.419-8.435-.555-17.502.645-26.004 2.52-19.023 11.063-38.005 23.804-52.306a103.33 103.33 0 0 1 71.412-34.985"/><path fill="#fdce28" d="M392.327 303.217c10.546-.663 27.194-.13 38.216-.104l68.43.243.04 44.135-69.616.02c-33.239.006-59.395-4.835-79.321 27.59-9.75 16.754-7.375 36.436-7.405 55.715-13.956.252-29.032-.116-43.119-.105.029-36.53-2.414-63.264 23.964-93.234 18.045-20.503 41.45-32.628 68.811-34.26"/><path fill="#fdce28" d="M502.838 513.925c1.181 2.018-.864 63.314-1.037 72.822l91.251-.277c-4.646 8.998-17.009 26.839-22.817 35.831a3384 3384 0 0 0-47.465 74.481l-.995 1.358c-.366-.647.794-64.169.833-69.609l-90.766-.043c7.393-13.767 21.028-34.104 29.609-47.85 13.507-21.636 27.555-45.492 41.387-66.713"/></svg>